<svg width="41" height="169" viewBox="0 0 41 169" fill="none" xmlns="http://www.w3.org/2000/svg">
<path d="M21.124 70.728H17.488V162.318H21.124V70.728Z" fill="#263238"/>
<path opacity="0.3" d="M21.124 70.728H17.488V162.318H21.124V70.728Z" fill="white"/>
<path d="M4.02399 168.966L17.488 159.984L19.3 161.424L7.49797 168.966H4.02399Z" fill="#263238"/>
<path opacity="0.3" d="M4.02399 168.966L17.488 159.984L19.3 161.424L7.49797 168.966H4.02399Z" fill="white"/>
<path d="M34.582 168.966L21.118 159.984L19.3 161.424L31.108 168.966H34.582Z" fill="#263238"/>
<path opacity="0.3" d="M34.582 168.966L21.118 159.984L19.3 161.424L31.108 168.966H34.582Z" fill="white"/>
<path d="M0.543991 36.054C0.183991 33.822 1.57 31.692 3.76 31.134C7.582 30.168 13.858 28.452 14.62 27.438C15.724 25.968 16.462 18.972 16.462 18.972L20.878 19.71V81.726H3.39399C3.39399 81.726 3.58 77.676 5.05 72.522C6.52 67.368 9.1 62.034 9.1 62.034C9.1 62.034 1.918 44.484 0.549997 36.054H0.543991Z" fill="#F83758"/>
<path d="M38.74 36.054C39.1 33.822 37.714 31.692 35.524 31.134C31.702 30.168 25.426 28.452 24.664 27.438C23.56 25.968 22.822 18.972 22.822 18.972L18.406 19.71V81.726H35.89C35.89 81.726 35.704 77.676 34.234 72.522C32.764 67.368 30.184 62.034 30.184 62.034C30.184 62.034 37.366 44.484 38.734 36.054H38.74Z" fill="#F83758"/>
<path opacity="0.2" d="M19.954 23.334C22.5254 23.334 24.61 19.2643 24.61 14.244C24.61 9.22374 22.5254 5.154 19.954 5.154C17.3825 5.154 15.298 9.22374 15.298 14.244C15.298 19.2643 17.3825 23.334 19.954 23.334Z" fill="black"/>
<path d="M19.954 21.552C24.7324 21.552 28.606 16.7731 28.606 10.878C28.606 4.98291 24.7324 0.203995 19.954 0.203995C15.1756 0.203995 11.302 4.98291 11.302 10.878C11.302 16.7731 15.1756 21.552 19.954 21.552Z" fill="#F83758"/>
<path d="M3.172 45.93C3.172 45.93 9.958 37.35 19.954 45.93C19.954 45.93 30.04 36.582 35.794 46.908L31.012 62.34C31.012 62.34 39.292 82.638 38.8 98.49L40.828 144.558H33.91L31.498 107.616L29.884 144.558H1.948C1.948 144.558 1.42 86.484 4.522 74.544C6.934 65.262 8.398 62.34 8.398 62.34L3.172 45.93Z" fill="#263238"/>
</svg>
