<svg width="87" height="175" viewBox="0 0 87 175" fill="none" xmlns="http://www.w3.org/2000/svg">
<path d="M34.936 28.53C33.04 28.362 29.218 31.686 28.198 32.724C27.178 33.762 19.108 37.266 19.108 37.266L10.144 26.712L6.586 28.638C6.586 28.638 14.47 44.64 15.28 45.546C16.09 46.452 17.416 46.566 19.834 46.224C22.252 45.882 35.872 36.714 35.536 36.6C35.194 36.486 34.948 28.53 34.948 28.53H34.936Z" fill="#B97964"/>
<path d="M10.198 27.258C10.198 27.258 11.266 25.914 11.086 24.51C10.906 23.1 11.14 21.93 10.936 20.892C10.732 19.854 10.024 21.096 9.784 21.828C9.544 22.566 9.262 23.394 8.734 23.124C8.212 22.854 5.47 18.588 4.702 18.294C3.934 18 4.162 18.828 4.162 18.828C4.162 18.828 3.466 17.808 2.992 17.976C2.866 18.018 2.65 18.318 2.89 18.834C3.436 19.986 4.714 22.356 4.714 22.356C4.642 22.218 2.86 19.41 2.542 19.026C2.122 18.522 1.666 18.498 1.384 18.75C0.982 19.11 3.07 22.662 3.052 22.878C3.052 22.878 1.918 20.79 1.216 20.79C0.514001 20.79 1.162 22.14 1.954 23.226C2.68 24.222 3.844 26.364 4.684 27.3C5.716 28.458 6.67 29.004 8.056 28.572C9.442 28.14 10.198 27.258 10.198 27.258Z" fill="#B97964"/>
<path opacity="0.3" d="M4.18002 24.216C4.13202 24.216 4.09002 24.192 4.06002 24.156C4.01202 24.09 4.02401 23.994 4.09001 23.946C5.01401 23.274 6.00402 22.686 7.04202 22.212C7.11402 22.176 7.20401 22.212 7.24001 22.284C7.27601 22.362 7.24002 22.446 7.16802 22.482C6.14802 22.95 5.17002 23.526 4.26402 24.186C4.24002 24.204 4.20401 24.216 4.17401 24.216H4.18002Z" fill="black"/>
<path opacity="0.3" d="M7.39001 26.472C7.39001 26.472 7.37201 26.472 7.36601 26.472C7.28201 26.46 7.22801 26.382 7.24001 26.298C7.39601 25.338 7.98401 24.45 8.80601 23.922C8.87801 23.88 8.96801 23.898 9.01601 23.97C9.05801 24.042 9.04001 24.132 8.96801 24.18C8.21801 24.66 7.68401 25.47 7.54001 26.352C7.52801 26.424 7.46201 26.478 7.39001 26.478V26.472Z" fill="black"/>
<path d="M37.84 5.304L43.18 2.244C40.222 -0.371997 36.736 0.251997 34.474 2.322C33.154 3.534 33.436 4.644 32.512 5.316C31.444 6.09 30.292 6.51 29.434 7.584C28.168 9.174 28.942 11.892 28.036 13.794C27.484 14.952 26.332 15.762 26.224 17.082C26.122 18.342 27.058 19.488 26.938 20.748C26.872 21.432 26.494 22.14 26.746 22.764C26.956 23.292 27.514 23.472 28 23.574C31.486 24.282 35.134 23.904 38.458 22.482C38.776 22.344 39.124 22.17 39.268 21.804C39.37 21.546 39.346 21.24 39.316 20.958C38.818 15.744 38.326 10.53 37.828 5.31L37.84 5.304Z" fill="#263238"/>
<path d="M44.446 5.52L41.686 2.66401C43.372 1.51201 45.67 1.75201 47.158 3.23401C47.986 4.05601 48.568 5.21401 49.492 5.88001C50.56 6.65401 51.994 6.72001 52.846 7.80001C54.112 9.39001 53.338 12.108 54.244 14.01C54.796 15.168 55.948 15.978 56.056 17.298C56.158 18.558 55.222 19.704 55.342 20.964C55.408 21.648 55.786 22.356 55.534 22.98C55.324 23.508 54.766 23.688 54.28 23.79C50.794 24.498 47.146 24.12 43.822 22.698C43.504 22.56 43.156 22.386 43.012 22.02C42.91 21.762 42.934 21.456 42.964 21.174C43.462 15.96 43.954 10.74 44.452 5.52601L44.446 5.52Z" fill="#263238"/>
<path d="M47.65 27.954C47.65 27.954 45.55 28.986 42.964 31.218C42.424 31.68 41.83 32.082 41.2 32.418C39.502 33.318 37.96 33.834 37.54 33.018C37.444 32.838 37.378 32.646 37.324 32.442C36.97 31.074 37.114 29.148 38.224 28.266C39.472 27.27 40.072 26.424 39.85 25.08C39.73 24.318 39.454 23.532 39.136 22.764L40.576 21.9L45.712 16.716C45.124 19.896 44.95 26.076 47.656 27.96L47.65 27.954Z" fill="#B97964"/>
<path opacity="0.2" d="M39.886 25.368C41.296 24.528 42.85 23.076 42.664 21.414C42.58 20.712 42.43 20.052 42.262 19.626L39.394 23.424C39.628 24.036 39.718 24.444 39.886 25.368Z" fill="black"/>
<path d="M46.696 10.866C46.21 16.146 46.12 18.378 43.396 21.15C39.298 25.314 32.998 23.91 31.912 18.684C30.934 13.974 31.888 6.138 37.072 3.918C42.178 1.734 47.182 5.592 46.696 10.872V10.866Z" fill="#B97964"/>
<path d="M39.862 12.588C39.838 13.146 39.532 13.602 39.184 13.614C38.836 13.62 38.578 13.176 38.602 12.618C38.626 12.06 38.932 11.604 39.28 11.592C39.628 11.586 39.886 12.03 39.862 12.588Z" fill="#263238"/>
<path d="M34.66 12.57C34.636 13.11 34.33 13.554 33.988 13.56C33.64 13.566 33.382 13.134 33.412 12.594C33.436 12.054 33.742 11.61 34.084 11.604C34.432 11.598 34.69 12.03 34.66 12.57Z" fill="#263238"/>
<path d="M40.966 10.644C40.9 10.65 40.828 10.632 40.78 10.584C39.97 9.834 39.052 10.098 39.04 10.098C38.902 10.14 38.77 10.062 38.734 9.92399C38.704 9.78599 38.788 9.642 38.926 9.6C38.974 9.588 40.12 9.252 41.134 10.188C41.236 10.284 41.236 10.446 41.134 10.554C41.086 10.608 41.026 10.638 40.96 10.644H40.966Z" fill="#263238"/>
<path d="M32.908 9.924C32.854 9.906 32.812 9.86401 32.788 9.81001C32.74 9.69001 32.8 9.54 32.92 9.474C34.126 8.796 35.02 9.31201 35.056 9.33601C35.164 9.40201 35.188 9.54601 35.11 9.67201C35.038 9.79201 34.888 9.84001 34.786 9.78001C34.75 9.76201 34.054 9.37201 33.094 9.91201C33.034 9.94801 32.968 9.95401 32.908 9.93601V9.924Z" fill="#263238"/>
<path d="M36.076 12.312C36.076 12.312 35.248 14.286 34.318 15.516C34.156 15.732 34.258 16.044 34.51 16.14C35.164 16.38 35.926 16.164 35.926 16.164L36.076 12.312Z" fill="#A24E3F"/>
<path d="M39.478 11.61L38.266 11.322C38.266 11.322 38.926 12.228 39.478 11.61Z" fill="#263238"/>
<path d="M34.204 11.616L32.992 11.328C32.992 11.328 33.652 12.234 34.204 11.616Z" fill="#263238"/>
<path d="M44.866 12.69C44.866 12.69 42.142 8.592 42.286 5.274C42.286 5.274 37.078 3.918 32.92 9.468C32.26 10.35 31.864 11.826 31.27 13.098C31.27 13.098 31.492 2.61 40.402 1.788C49.3 0.965999 54.358 14.886 45.49 18.126C45.49 18.126 46.552 15.252 44.866 12.69Z" fill="#263238"/>
<path d="M48.292 15.168C47.668 16.248 46.654 16.932 45.73 17.16C44.332 17.508 43.612 15.264 44.086 13.866C44.518 12.606 45.886 11.772 47.248 12.048C48.586 12.318 49.006 13.932 48.292 15.168Z" fill="#B97964"/>
<path opacity="0.2" d="M45.346 15.036H45.334C45.25 15.036 45.19 14.958 45.196 14.874C45.232 14.334 45.484 13.818 45.892 13.458C46.3 13.098 46.846 12.918 47.386 12.948C47.47 12.948 47.53 13.026 47.524 13.11C47.524 13.194 47.452 13.26 47.368 13.248C46.912 13.218 46.438 13.38 46.09 13.686C45.742 13.992 45.526 14.436 45.49 14.898C45.49 14.976 45.418 15.036 45.34 15.036H45.346Z" fill="black"/>
<path d="M37.612 17.91C37.462 17.91 37.3 17.892 37.126 17.856C37.048 17.838 36.994 17.76 37.012 17.682C37.03 17.604 37.102 17.544 37.192 17.568C38.602 17.856 39.076 16.644 39.1 16.596C39.13 16.518 39.214 16.482 39.292 16.506C39.37 16.536 39.412 16.62 39.382 16.698C39.382 16.71 38.92 17.916 37.618 17.916L37.612 17.91Z" fill="#263238"/>
<path d="M47.968 17.334C47.968 17.928 47.488 18.408 46.894 18.408C46.3 18.408 45.82 17.928 45.82 17.334C45.82 16.74 46.3 16.26 46.894 16.26C47.488 16.26 47.968 16.74 47.968 17.334Z" fill="#F83758"/>
<path d="M83.314 106.386C79.03 105.42 74.572 105.9 70.234 106.572C62.002 107.85 53.794 109.854 46.27 113.556C37.15 114.816 24.46 114.846 22.084 118.434C45.628 128.478 73.468 117.744 84.136 110.958C85.012 110.4 85.978 109.608 85.924 108.534C85.858 107.292 84.484 106.644 83.32 106.38L83.314 106.386Z" fill="#F83758"/>
<g opacity="0.2">
<path d="M83.314 106.386C79.03 105.42 74.572 105.9 70.234 106.572C62.002 107.85 53.794 109.854 46.27 113.556C37.15 114.816 24.46 114.846 22.084 118.434C45.628 128.478 73.468 117.744 84.136 110.958C85.012 110.4 85.978 109.608 85.924 108.534C85.858 107.292 84.484 106.644 83.32 106.38L83.314 106.386Z" fill="black"/>
</g>
<path d="M56.944 32.472C56.944 32.472 58.702 33.156 60.04 36.93C60.964 39.534 65.68 54.39 65.908 56.856C66.262 60.708 64.264 82.332 64.264 82.332L60.37 81.912C60.37 81.912 58.984 58.602 58.93 58.356C58.876 58.116 52.186 40.284 52.186 40.284L56.944 32.472Z" fill="#B97964"/>
<path d="M62.374 128.328C61.51 125.25 59.44 121.896 59.002 119.406C58.612 117.246 59.122 115.776 58.816 110.796C58.462 104.772 57.496 96.774 54.982 90.864C54.982 90.864 59.878 83.196 55 74.778L51.742 69.432L33.832 69.54L47.62 119.262L62.17 161.07L67.192 160.356C66.694 151.41 64.678 137.226 62.38 128.328H62.374Z" fill="#B97964"/>
<path opacity="0.2" d="M58.726 107.286L46.168 110.724L45.706 112.446L46.186 114.102L46.708 115.974C46.708 115.974 49.372 115.044 52.132 114.168C54.892 113.292 58.882 112.098 58.882 112.098L58.726 107.286Z" fill="black"/>
<path d="M60.37 173.904C60.838 173.214 61.438 172.578 62.134 172.026C62.134 172.026 63.688 169.2 62.452 163.374L65.26 161.37C66.232 160.704 67.48 160.53 68.392 160.938C68.518 160.998 68.632 161.07 68.728 161.16C69.13 161.652 69.49 162.174 69.802 162.72C70.834 164.592 71.716 166.536 72.442 168.546L71.866 168.816L70.024 165.24C69.448 164.004 68.776 166.068 69.01 167.568C69.244 169.068 69.13 170.88 65.554 172.554C61.45 174.492 59.65 175.164 60.364 173.91L60.37 173.904Z" fill="black"/>
<path d="M61.774 159.39C61.774 159.39 62.584 163.944 62.698 167.13C62.872 168.72 62.668 170.388 62.098 172.044C62.098 172.044 64.954 171.186 65.506 169.284C66.058 167.382 65.566 161.958 68.404 160.962C68.038 160.71 67.63 160.506 67.186 160.356L66.868 158.688C65.356 158.892 61.774 159.39 61.774 159.39Z" fill="#B97964"/>
<path d="M53.458 41.388L57.868 32.178C55.882 29.208 46.042 26.928 46.042 26.928L39.562 27.282C39.562 27.282 37.072 27.84 34.936 28.536C32.086 29.466 30.55 30.21 29.872 31.794C29.872 31.794 28.51 35.316 29.398 42.51C29.644 44.496 30.31 56.01 28.498 59.322L28.534 60.234C40.378 69.456 50.398 67.914 50.398 67.914C49.864 66.288 49.918 60.918 49.678 59.322C49.852 57.294 49.78 55.746 50.638 52.188C50.806 51.504 53.176 42.06 53.464 41.394L53.458 41.388Z" fill="#B97964"/>
<path d="M26.224 74.244L24.286 119.55L25.84 163.458L31.3 164.862C33.718 156.186 35.68 139.134 36.244 130.242C36.376 127.194 35.392 123.678 35.734 121.272C36.034 119.16 37.018 117.828 38.308 113.034C39.868 107.238 41.446 99.486 40.816 93.48C40.816 93.48 48.154 86.892 45.982 78.144L26.23 74.238L26.224 74.244Z" fill="#B97964"/>
<path opacity="0.2" d="M24.286 119.55C24.286 119.55 26.416 117.522 30.334 118.116C34.252 118.71 36.106 119.694 36.106 119.694L37.168 116.736L28.192 114.192L24.286 116.124V119.556V119.55Z" fill="black"/>
<path d="M18.964 173.784C19.678 173.358 20.494 173.034 21.358 172.83C21.358 172.83 23.968 170.934 25.312 165.126L28.708 164.502C29.872 164.31 31.078 164.682 31.726 165.438C31.816 165.546 31.888 165.66 31.936 165.78C32.092 166.398 32.194 167.022 32.248 167.646C32.386 169.776 32.362 171.912 32.17 174.042H31.534L31.384 170.022C31.384 168.654 29.902 170.244 29.482 171.702C29.062 173.16 28.186 174.75 24.238 174.75C19.696 174.768 17.782 174.612 18.964 173.772V173.784Z" fill="black"/>
<path d="M25.96 163.044C25.96 163.044 25.192 165.696 23.944 168.636C23.428 170.148 22.54 171.57 21.316 172.83C21.316 172.83 24.268 173.262 25.576 171.78C26.884 170.292 28.738 165.168 31.726 165.474C31.504 165.096 31.216 164.736 30.88 164.406C30.394 163.866 25.954 163.05 25.954 163.05L25.96 163.044Z" fill="#B97964"/>
<path d="M60.592 81.834C60.592 81.834 59.032 82.542 58.546 83.874C58.06 85.206 57.322 86.142 57.028 87.162C56.734 88.176 57.934 87.396 58.48 86.856C59.032 86.31 59.662 85.698 60.004 86.178C60.346 86.658 60.844 91.704 61.39 92.316C61.942 92.928 62.116 92.088 62.116 92.088C62.116 92.088 62.272 93.312 62.77 93.378C62.902 93.396 63.232 93.228 63.25 92.658C63.292 91.38 63.232 88.698 63.232 88.698C63.232 88.854 63.538 92.16 63.646 92.652C63.79 93.294 64.186 93.522 64.552 93.426C65.074 93.288 64.834 89.172 64.948 88.992C64.948 88.992 65.008 91.368 65.626 91.686C66.25 92.004 66.292 90.51 66.082 89.184C65.89 87.966 65.824 85.53 65.512 84.312C65.122 82.812 64.522 81.894 63.088 81.642C61.654 81.396 60.586 81.834 60.586 81.834H60.592Z" fill="#B97964"/>
<path d="M24.19 74.076C21.73 86.274 21.7 107.862 22.084 118.434C22.084 118.434 27.46 113.748 36.07 116.892C44.68 120.036 48.352 120.096 52.69 118.722C57.022 117.348 60.424 110.49 72.928 108.09C85.432 105.69 85.906 108.408 85.906 108.408C85.906 108.408 87.406 105.294 81.154 103.116C74.902 100.944 67.414 93.48 63.796 88.734C60.178 83.988 53.38 69.774 51.586 66.126C49.69 62.28 49.81 58.056 49.81 58.056L29.2 56.082C29.2 56.082 26.164 64.326 24.196 74.076H24.19Z" fill="#263238"/>
<path d="M47.968 27.426L45.082 29.742C41.956 32.25 37.684 31.362 35.236 28.194C32.134 28.98 30.652 29.472 30.652 29.472C30.652 29.472 28.51 35.31 29.398 42.504C29.644 44.49 30.31 56.004 28.498 59.316L28.534 60.228C40.378 69.45 50.398 67.908 50.398 67.908C49.864 66.282 49.984 60.63 49.744 59.04C49.918 57.012 49.78 55.746 50.638 52.188C50.806 51.504 53.794 42.648 54.082 41.982L57.736 31.77C55.03 29.022 47.968 27.432 47.968 27.432V27.426Z" fill="#263238"/>
<path d="M28.282 59.226L50.134 61.068L50.14 56.826L29.446 55.05L28.282 59.226Z" fill="#F83758"/>
<path d="M21.904 35.142L26.452 44.238L30.352 41.748L32.998 29.088C32.998 29.088 30.616 29.07 28.678 30.546C26.848 31.938 21.904 35.142 21.904 35.142Z" fill="#263238"/>
<path opacity="0.2" d="M29.38 42.36C29.38 42.36 29.068 39.558 29.23 37.026L29.398 34.494C29.398 34.494 27.586 40.482 27.832 43.356L29.386 42.36H29.38Z" fill="black"/>
<path d="M52.378 41.97L54.406 49.134L62.956 43.842C62.956 43.842 59.98 31.866 57.1 31.506C54.22 31.146 52.372 41.97 52.372 41.97H52.378Z" fill="#263238"/>
<path opacity="0.2" d="M53.134 44.634L54.808 38.622L53.938 47.46L53.134 44.634Z" fill="black"/>
</svg>
