<svg width="72" height="35" viewBox="0 0 72 35" fill="none" xmlns="http://www.w3.org/2000/svg">
<path d="M71.846 28.224H0.619995V34.74H71.846V28.224Z" fill="#263238"/>
<path d="M11.834 17.286L11.39 17.208C11.696 15.492 12.014 13.722 12.692 12.066C13.22 10.764 14.222 8.976 15.968 7.878C18.554 6.252 22.238 6.642 24.728 8.802C26.954 10.734 28.172 13.968 27.908 17.244L27.458 17.208C27.71 14.07 26.552 10.974 24.434 9.138C22.13 7.134 18.59 6.756 16.208 8.256C14.564 9.294 13.616 10.992 13.112 12.234C12.458 13.848 12.14 15.594 11.84 17.286H11.834Z" fill="#263238"/>
<path d="M29.966 20.73C29.966 24.87 25.472 28.224 19.934 28.224C14.396 28.224 9.90201 24.87 9.90201 20.73C9.90201 18.9 10.388 16.848 11.852 15.546C13.694 13.908 16.85 13.236 19.934 13.236C22.61 13.236 25.736 13.77 27.536 15.048C29.456 16.416 29.966 18.588 29.966 20.73Z" fill="#F83758"/>
<path opacity="0.3" d="M29.966 20.73C29.966 24.87 25.472 28.224 19.934 28.224C14.396 28.224 9.90201 24.87 9.90201 20.73C9.90201 18.9 10.388 16.848 11.852 15.546C13.694 13.908 16.85 13.236 19.934 13.236C22.61 13.236 25.736 13.77 27.536 15.048C29.456 16.416 29.966 18.588 29.966 20.73Z" fill="black"/>
<path opacity="0.3" d="M10.574 18.036C10.574 18.036 13.502 21.558 19.94 21.618C26.372 21.678 29.306 18.036 29.306 18.036C29.306 18.036 26.852 22.902 19.412 22.902C13.97 22.902 10.574 18.036 10.574 18.036Z" fill="black"/>
<path d="M19.61 20.472C20.0573 20.472 20.42 20.1094 20.42 19.662C20.42 19.2147 20.0573 18.852 19.61 18.852C19.1626 18.852 18.8 19.2147 18.8 19.662C18.8 20.1094 19.1626 20.472 19.61 20.472Z" fill="#263238"/>
<path d="M64.43 13.89H42.374V27.942H64.43V13.89Z" fill="#F83758"/>
<path d="M65.822 12.3H40.982V18.18H65.822V12.3Z" fill="#F83758"/>
<path opacity="0.3" d="M64.43 18.234H42.374V19.686H64.43V18.234Z" fill="black"/>
<path opacity="0.3" d="M56.666 14.16H50.144C49.6138 14.16 49.184 14.5898 49.184 15.12V15.33C49.184 15.8602 49.6138 16.29 50.144 16.29H56.666C57.1962 16.29 57.626 15.8602 57.626 15.33V15.12C57.626 14.5898 57.1962 14.16 56.666 14.16Z" fill="black"/>
<path d="M67.376 11.028C66.494 10.5 65.492 10.104 64.424 9.846C64.088 9.888 60.716 10.284 59.174 8.532C57.554 6.684 55.262 0.329999 51.554 0.701999C51.578 0.659999 51.608 0.624001 51.632 0.582001C51.608 0.612001 51.578 0.635999 51.554 0.659999C51.44 0.791999 51.356 0.935999 51.29 1.086C51.098 1.854 50.966 2.628 50.9 3.402C50.726 6.048 50.846 9.588 51.08 12.228H51.866L51.968 6.354C51.968 4.662 53.804 6.63 54.326 8.436C54.848 10.242 55.934 12.222 60.83 12.228C66.464 12.252 68.834 12.066 67.376 11.028Z" fill="#263238"/>
<path opacity="0.1" d="M67.376 11.028C66.494 10.5 65.492 10.104 64.424 9.846C64.088 9.888 60.716 10.284 59.174 8.532C57.554 6.684 55.262 0.329999 51.554 0.701999C51.578 0.659999 51.608 0.624001 51.632 0.582001C51.608 0.612001 51.578 0.635999 51.554 0.659999C51.44 0.791999 51.356 0.935999 51.29 1.086C51.098 1.854 50.966 2.628 50.9 3.402C50.726 6.048 50.846 9.588 51.08 12.228H51.866L51.968 6.354C51.968 4.662 53.804 6.63 54.326 8.436C54.848 10.242 55.934 12.222 60.83 12.228C66.464 12.252 68.834 12.066 67.376 11.028Z" fill="black"/>
<path d="M58.082 11.028C57.2 10.5 56.198 10.104 55.13 9.846C54.794 9.888 51.422 10.284 49.88 8.532C48.26 6.684 45.968 0.329999 42.26 0.701999C42.284 0.659999 42.314 0.624001 42.338 0.582001C42.314 0.612001 42.284 0.635999 42.26 0.659999C42.146 0.791999 42.062 0.935999 41.996 1.086C41.804 1.854 41.672 2.628 41.606 3.402C41.432 6.048 41.552 9.588 41.786 12.228H42.572L42.674 6.354C42.674 4.662 44.51 6.63 45.032 8.436C45.554 10.242 46.64 12.222 51.536 12.228C57.17 12.252 59.54 12.066 58.082 11.028Z" fill="#263238"/>
</svg>
