<svg width="85" height="107" viewBox="0 0 85 107" fill="none" xmlns="http://www.w3.org/2000/svg">
<path d="M35.358 17.59H4.78801C4.37401 17.59 4.01401 17.32 3.90001 16.924C3.78601 16.522 3.94801 16.108 4.30201 15.886L19.422 6.484L35.808 15.934C36.162 16.138 36.33 16.54 36.222 16.93C36.114 17.326 35.772 17.59 35.364 17.59H35.358ZM4.61401 16.396C4.42201 16.516 4.45801 16.702 4.47601 16.756C4.49401 16.81 4.56001 16.99 4.78801 16.99H35.358C35.562 16.99 35.622 16.828 35.634 16.774C35.646 16.72 35.676 16.552 35.502 16.45L19.428 7.18L4.61401 16.39V16.396Z" fill="#263238"/>
<path d="M19.536 7.138C19.506 7.138 19.476 7.13801 19.446 7.12601C19.29 7.07201 19.2 6.904 19.254 6.748C19.602 5.686 19.77 4.58201 19.758 3.46001C19.758 2.98001 19.704 2.374 19.392 1.948C19.182 1.654 18.828 1.462 18.42 1.42C17.994 1.372 17.58 1.49201 17.292 1.74401C16.704 2.26001 16.632 3.298 17.142 3.922C17.244 4.048 17.226 4.24001 17.1 4.34201C16.974 4.45001 16.782 4.426 16.68 4.3C15.966 3.43 16.068 2.02001 16.896 1.29401C17.31 0.928006 17.892 0.760001 18.486 0.820001C19.062 0.886001 19.566 1.16801 19.878 1.59401C20.286 2.15801 20.352 2.884 20.358 3.454C20.37 4.636 20.196 5.806 19.824 6.934C19.782 7.06 19.662 7.14401 19.536 7.14401V7.138Z" fill="#263238"/>
<path d="M11.274 10.936L19.734 22.672L26.43 10.402L35.892 15.856L39.732 22.546L34.242 25.39L32.478 36.268L34.242 52.108C25.23 54.592 16.332 54.658 7.56 52.108L9.018 36.454L7.56 27.19L0.384003 24.514L2.856 16.942L11.268 10.93L11.274 10.936Z" fill="#F83758"/>
<path opacity="0.3" d="M7.56 27.196L5.772 20.992V26.53L7.56 27.196Z" fill="black"/>
<path opacity="0.3" d="M34.242 25.39L34.944 19.27L35.91 24.526L34.242 25.39Z" fill="black"/>
<path opacity="0.3" d="M15.18 43.888C15.18 43.888 25.104 38.584 27.582 33.304C27.582 33.304 25.23 43.948 15.18 43.888Z" fill="black"/>
<path d="M78.168 17.59H47.598C47.184 17.59 46.824 17.32 46.71 16.924C46.596 16.522 46.758 16.108 47.112 15.886L62.232 6.484L78.618 15.934C78.972 16.138 79.14 16.54 79.032 16.936C78.924 17.332 78.582 17.596 78.174 17.596L78.168 17.59ZM47.424 16.396C47.232 16.516 47.268 16.702 47.286 16.756C47.304 16.81 47.37 16.99 47.598 16.99H78.168C78.372 16.99 78.432 16.828 78.444 16.774C78.456 16.72 78.486 16.552 78.312 16.45L62.238 7.18L47.424 16.39V16.396Z" fill="#263238"/>
<path d="M62.346 7.138C62.316 7.138 62.286 7.13801 62.256 7.12601C62.1 7.07201 62.01 6.904 62.064 6.748C62.412 5.686 62.58 4.57601 62.568 3.46001C62.568 2.98001 62.514 2.374 62.202 1.948C61.992 1.654 61.638 1.462 61.23 1.42C60.804 1.372 60.39 1.49201 60.102 1.74401C59.514 2.26001 59.442 3.298 59.952 3.922C60.054 4.048 60.036 4.24001 59.91 4.34201C59.784 4.45001 59.592 4.426 59.49 4.3C58.776 3.43 58.878 2.02001 59.706 1.29401C60.12 0.928006 60.702 0.760001 61.296 0.820001C61.872 0.886001 62.376 1.16801 62.688 1.59401C63.096 2.15801 63.162 2.884 63.168 3.454C63.18 4.636 63.006 5.806 62.634 6.934C62.592 7.06 62.478 7.14401 62.346 7.14401V7.138Z" fill="#263238"/>
<path d="M54.168 11.398L52.356 12.472L53.676 23.308L54.492 23.086L54.168 11.398Z" fill="#263238"/>
<path d="M70.896 11.44L72.282 12.232L69.582 22.888L68.94 22.654L70.764 11.656L70.896 11.44Z" fill="#263238"/>
<path d="M35.91 97.156C39.678 102.328 43.482 104.086 47.052 104.428C51.084 104.296 54.21 101.44 57.372 97.156C58.146 95.848 59.406 95.53 59.73 97.156L60.426 99.124C60.564 99.496 60.978 99.688 61.356 99.544C61.572 99.466 61.734 99.286 61.8 99.064L62.292 97.174C62.442 96.412 63.18 95.92 63.936 96.07C64.494 96.178 64.932 96.616 65.04 97.174L65.628 100.27C66.546 102.766 69.126 106.402 74.802 106.222C78.732 106.27 81.618 101.584 84.534 97.18L70.584 41.17L53.448 40.612L35.91 97.162V97.156Z" fill="#F83758"/>
<path opacity="0.2" d="M64.458 96.334C64.092 96.028 63.6 95.938 63.15 96.082V64.228L64.458 96.334Z" fill="black"/>
<path d="M47.88 24.316L52.896 21.916C54.126 21.322 55.572 21.394 56.736 22.102L62.052 25.3L66.432 22.57C68.016 21.586 70.002 21.532 71.64 22.42L76.59 25.108L71.31 43.66L68.37 44.896C67.608 45.214 66.744 45.154 66.03 44.734L62.826 42.58C62.142 42.124 61.248 42.142 60.582 42.622L58.476 44.146C57.636 44.752 56.568 44.95 55.566 44.698L52.38 43.876L47.886 24.322L47.88 24.316Z" fill="#F83758"/>
<path d="M52.374 43.87L51.504 40.09C58.56 41.35 65.46 41.578 72.168 40.606L71.472 44.716C71.472 44.716 62.022 46.84 52.872 43.888" fill="#263238"/>
<g opacity="0.2">
<path d="M53.646 34.84C54.918 35.56 56.43 35.842 57.882 35.638C59.328 35.434 60.702 34.744 61.734 33.7C61.542 35.32 60.012 36.574 58.392 36.772C56.772 36.97 55.146 36.274 53.892 35.224" fill="black"/>
</g>
</svg>
