<svg width="139" height="131" viewBox="0 0 139 131" fill="none" xmlns="http://www.w3.org/2000/svg">
<path d="M135.118 38.974H25.702V130.966H135.118V38.974Z" fill="#F83758"/>
<path opacity="0.2" d="M135.118 38.974H25.702V130.966H135.118V38.974Z" fill="black"/>
<path d="M29.188 34.528L33.868 5.51201H54.712L59.956 34.228L29.188 34.528Z" fill="#F83758"/>
<path opacity="0.3" d="M29.188 34.528L33.868 5.51201H54.712L59.956 34.228L29.188 34.528Z" fill="white"/>
<path opacity="0.3" d="M51.772 34.156L59.956 34.228L54.712 5.51201L51.772 34.156Z" fill="black"/>
<path d="M40.198 7.57601C40.198 8.09801 39.772 8.524 39.25 8.524C38.728 8.524 38.302 8.09801 38.302 7.57601C38.302 7.05401 38.728 6.62801 39.25 6.62801C39.772 6.62801 40.198 7.05401 40.198 7.57601Z" fill="#263238"/>
<path d="M49.348 7.57601C49.348 8.09801 48.922 8.524 48.4 8.524C47.878 8.524 47.452 8.09801 47.452 7.57601C47.452 7.05401 47.878 6.62801 48.4 6.62801C48.922 6.62801 49.348 7.05401 49.348 7.57601Z" fill="#263238"/>
<path d="M39.412 7.27001C39.412 5.69201 39.418 4.03001 40.264 2.63801C41.11 1.24601 42.634 0.664012 44.224 0.664012C45.814 0.664012 47.236 1.24601 47.836 2.78801C48.436 4.33001 48.082 5.94401 48.094 7.51001C48.094 7.79801 48.544 7.79801 48.544 7.51001C48.532 6.07001 48.802 4.59401 48.436 3.17801C48.142 2.05601 47.458 1.07201 46.372 0.598011C44.08 -0.391989 41.002 0.346006 39.772 2.59001C38.992 4.01801 38.968 5.67401 38.968 7.26401C38.968 7.55201 39.418 7.55201 39.418 7.26401L39.412 7.27001Z" fill="#263238"/>
<path opacity="0.1" d="M55.564 32.668L54.712 5.51201L51.772 34.156L55.564 32.668Z" fill="black"/>
<path d="M47.62 19.834H36.568L37.006 17.2H48.058L47.62 19.834Z" fill="white"/>
<path opacity="0.3" d="M135.118 38.194H25.702V43.636H135.118V38.194Z" fill="black"/>
<path d="M138.694 33.592H20.65V39.682H138.694V33.592Z" fill="#F83758"/>
<path d="M88.828 71.332H67.294V85.048H88.828V71.332Z" fill="#263238"/>
<path opacity="0.3" d="M88.828 71.332H67.294V85.048H88.828V71.332Z" fill="white"/>
<path d="M90.184 69.784H65.932V75.526H90.184V69.784Z" fill="#263238"/>
<path opacity="0.3" d="M90.184 69.784H65.932V75.526H90.184V69.784Z" fill="white"/>
<path opacity="0.3" d="M88.828 75.574H67.294V76.99H88.828V75.574Z" fill="black"/>
<path opacity="0.3" d="M81.502 71.602H74.614C74.2396 71.602 73.936 71.9055 73.936 72.28V73.006C73.936 73.3805 74.2396 73.684 74.614 73.684H81.502C81.8765 73.684 82.18 73.3805 82.18 73.006V72.28C82.18 71.9055 81.8765 71.602 81.502 71.602Z" fill="black"/>
<path d="M95.344 84.97H0.850006V130.966H95.344V84.97Z" fill="#263238"/>
<path d="M13.306 71.62L12.856 71.596C12.874 71.272 12.886 70.924 12.904 70.57C13 68.254 13.126 65.368 14.368 63.43C15.658 61.42 17.842 60.226 20.866 59.872C23.596 59.554 26.356 60.712 27.904 62.818C29.596 65.116 29.722 68.158 29.704 71.08H29.254C29.266 68.236 29.146 65.278 27.538 63.088C26.08 61.108 23.482 60.022 20.914 60.322C18.034 60.658 15.958 61.786 14.74 63.676C13.558 65.512 13.444 68.332 13.348 70.594C13.33 70.948 13.318 71.296 13.3 71.62H13.306Z" fill="#263238"/>
<path d="M32.896 84.97H9.67001L12.058 69.874H31.006L32.896 84.97Z" fill="#F83758"/>
<path opacity="0.3" d="M12.058 69.874C12.058 69.874 14.914 77.392 21.28 77.422C27.646 77.452 31.006 69.874 31.006 69.874C31.006 69.874 27.886 78.88 21.28 78.748C14.674 78.61 12.058 69.874 12.058 69.874Z" fill="black"/>
<path d="M23.254 74.686H19.474V75.418H23.254V74.686Z" fill="#263238"/>
<path d="M62.362 83.71C61.57 83.236 60.67 82.876 59.704 82.648C59.404 82.69 56.368 83.044 54.982 81.466C53.524 79.804 51.46 74.086 48.124 74.422C48.148 74.386 48.172 74.35 48.196 74.314C48.172 74.338 48.148 74.362 48.124 74.386C48.022 74.506 47.944 74.632 47.89 74.77C47.716 75.46 47.602 76.156 47.542 76.852C47.386 79.234 47.494 82.42 47.704 84.796H48.412L48.508 79.51C48.508 77.986 50.158 79.756 50.632 81.382C51.1 83.008 52.078 84.79 56.482 84.796C61.552 84.82 63.682 84.652 62.374 83.716L62.362 83.71Z" fill="#F83758"/>
<path opacity="0.1" d="M62.362 83.71C61.57 83.236 60.67 82.876 59.704 82.648C59.404 82.69 56.368 83.044 54.982 81.466C53.524 79.804 51.46 74.086 48.124 74.422C48.148 74.386 48.172 74.35 48.196 74.314C48.172 74.338 48.148 74.362 48.124 74.386C48.022 74.506 47.944 74.632 47.89 74.77C47.716 75.46 47.602 76.156 47.542 76.852C47.386 79.234 47.494 82.42 47.704 84.796H48.412L48.508 79.51C48.508 77.986 50.158 79.756 50.632 81.382C51.1 83.008 52.078 84.79 56.482 84.796C61.552 84.82 63.682 84.652 62.374 83.716L62.362 83.71Z" fill="black"/>
<path d="M53.998 83.71C53.206 83.236 52.306 82.876 51.34 82.648C51.04 82.69 48.004 83.044 46.618 81.466C45.16 79.804 43.096 74.086 39.76 74.422C39.784 74.386 39.808 74.35 39.832 74.314C39.808 74.338 39.784 74.362 39.76 74.386C39.658 74.506 39.58 74.632 39.526 74.77C39.352 75.46 39.238 76.156 39.178 76.852C39.022 79.234 39.13 82.42 39.34 84.796H40.048L40.144 79.51C40.144 77.986 41.794 79.756 42.268 81.382C42.736 83.008 43.714 84.79 48.118 84.796C53.188 84.82 55.318 84.652 54.01 83.716L53.998 83.71Z" fill="#F83758"/>
</svg>
