<svg width="72" height="32" viewBox="0 0 72 32" fill="none" xmlns="http://www.w3.org/2000/svg">
<path d="M44.516 12.16L44.066 12.136C44.084 11.812 44.096 11.47 44.114 11.116C44.21 8.8 44.336 5.914 45.578 3.976C46.868 1.966 49.052 0.771996 52.076 0.417996C54.806 0.0999964 57.566 1.258 59.114 3.364C60.806 5.662 60.932 8.704 60.92 11.626H60.47C60.482 8.782 60.362 5.818 58.754 3.634C57.296 1.654 54.698 0.567996 52.13 0.867996C49.25 1.204 47.174 2.332 45.956 4.222C44.774 6.058 44.66 8.878 44.564 11.14C44.552 11.494 44.534 11.842 44.516 12.166V12.16Z" fill="#263238"/>
<path d="M64.106 25.51H40.88L43.274 10.414H62.222L64.106 25.51Z" fill="#F83758"/>
<path opacity="0.3" d="M43.274 10.414C43.274 10.414 46.13 17.932 52.496 17.962C58.862 17.986 62.222 10.414 62.222 10.414C62.222 10.414 59.102 19.42 52.496 19.288C45.89 19.15 43.274 10.414 43.274 10.414Z" fill="black"/>
<path d="M54.47 15.226H50.69V15.958H54.47V15.226Z" fill="#263238"/>
<path d="M30.902 22.312H7.09399C6.49089 22.312 6.00198 22.8009 6.00198 23.404V24.304C6.00198 24.9071 6.49089 25.396 7.09399 25.396H30.902C31.5051 25.396 31.994 24.9071 31.994 24.304V23.404C31.994 22.8009 31.5051 22.312 30.902 22.312Z" fill="#F83758"/>
<path d="M5.19199 20.326V21.22C5.20399 21.838 5.71399 22.324 6.33199 22.312H31.016C31.634 22.324 32.144 21.832 32.156 21.22V20.326C32.144 19.708 31.634 19.216 31.016 19.228H6.31399C5.70199 19.228 5.20399 19.72 5.19199 20.326Z" fill="#F83758"/>
<path opacity="0.3" d="M5.19199 20.326V21.22C5.20399 21.838 5.71399 22.324 6.33199 22.312H31.016C31.634 22.324 32.144 21.832 32.156 21.22V20.326C32.144 19.708 31.634 19.216 31.016 19.228H6.31399C5.70199 19.228 5.20399 19.72 5.19199 20.326Z" fill="black"/>
<path d="M5.26999 17.236V18.13C5.28799 18.754 5.80399 19.24 6.42799 19.222H31.562C32.186 19.24 32.702 18.748 32.72 18.13V17.236C32.708 16.612 32.192 16.12 31.568 16.132H6.42799C5.80399 16.114 5.28799 16.606 5.26999 17.224V17.236Z" fill="#F83758"/>
<path d="M5.918 14.146V15.04C5.918 15.646 6.41 16.138 7.022 16.138H30.896C31.502 16.138 32 15.646 32 15.04V14.146C32 13.54 31.502 13.054 30.896 13.054H6.986C6.392 13.072 5.924 13.558 5.918 14.146Z" fill="#F83758"/>
<path opacity="0.3" d="M5.918 14.146V15.04C5.918 15.646 6.41 16.138 7.022 16.138H30.896C31.502 16.138 32 15.646 32 15.04V14.146C32 13.54 31.502 13.054 30.896 13.054H6.986C6.392 13.072 5.924 13.558 5.918 14.146Z" fill="black"/>
<path d="M7.30398 11.062V11.956C7.27998 12.526 7.71798 13.018 8.28798 13.048H29.618C30.194 13.018 30.632 12.526 30.602 11.956V11.062C30.632 10.486 30.194 9.994 29.618 9.958H8.31798C7.74198 9.976 7.28598 10.456 7.30398 11.038V11.062Z" fill="#F83758"/>
<path d="M71.492 25.282H0.265991V31.798H71.492V25.282Z" fill="#263238"/>
</svg>
