<svg width="58" height="33" viewBox="0 0 58 33" fill="none" xmlns="http://www.w3.org/2000/svg">
<path d="M55.678 20.336H32.542V32.966H55.678V20.336Z" fill="#263238"/>
<path opacity="0.7" d="M55.678 20.336H32.542V32.966H55.678V20.336Z" fill="white"/>
<path d="M57.142 18.914H31.084V24.2H57.142V18.914Z" fill="#263238"/>
<path opacity="0.7" d="M57.142 18.914H31.084V24.2H57.142V18.914Z" fill="white"/>
<path opacity="0.3" d="M55.678 24.242H32.542V25.544H55.678V24.242Z" fill="black"/>
<path opacity="0.3" d="M46.372 22.496H42.388C41.86 22.496 41.428 22.07 41.428 21.536C41.428 21.008 41.854 20.576 42.388 20.576H46.372C46.9 20.576 47.332 21.002 47.332 21.536C47.332 22.064 46.906 22.496 46.372 22.496Z" fill="black"/>
<path d="M33.154 18.914H2.17599V32.966H33.154V18.914Z" fill="#F83758"/>
<path d="M35.116 17.33H0.220001V23.21H35.116V17.33Z" fill="#F83758"/>
<path opacity="0.3" d="M33.154 23.258H2.17599V24.71H33.154V23.258Z" fill="black"/>
<path opacity="0.3" d="M21.022 19.19H15.04C14.5098 19.19 14.08 19.6198 14.08 20.15V20.36C14.08 20.8902 14.5098 21.32 15.04 21.32H21.022C21.5522 21.32 21.982 20.8902 21.982 20.36V20.15C21.982 19.6198 21.5522 19.19 21.022 19.19Z" fill="black"/>
<path d="M33.154 2.29399H2.17599V17.33H33.154V2.29399Z" fill="#263238"/>
<path d="M35.116 0.595993H0.220001V6.88999H35.116V0.595993Z" fill="#263238"/>
<path opacity="0.3" d="M33.154 6.944H2.17599V8.498H33.154V6.944Z" fill="black"/>
<path opacity="0.3" d="M21.022 2.58801H15.04C14.5098 2.58801 14.08 3.0178 14.08 3.548V3.908C14.08 4.43819 14.5098 4.86801 15.04 4.86801H21.022C21.5522 4.86801 21.982 4.43819 21.982 3.908V3.548C21.982 3.0178 21.5522 2.58801 21.022 2.58801Z" fill="black"/>
</svg>
