<svg width="241" height="166" viewBox="0 0 241 166" fill="none" xmlns="http://www.w3.org/2000/svg">
<path d="M237.352 165.12H128.902C126.964 165.12 125.386 163.542 125.386 161.604V3.636C125.386 1.698 126.964 0.119999 128.902 0.119999H237.352C239.29 0.119999 240.868 1.698 240.868 3.636V161.604C240.868 163.542 239.29 165.12 237.352 165.12ZM128.902 0.269999C127.048 0.269999 125.536 1.782 125.536 3.636V161.604C125.536 163.458 127.048 164.97 128.902 164.97H237.352C239.206 164.97 240.718 163.458 240.718 161.604V3.636C240.718 1.782 239.206 0.269999 237.352 0.269999H128.902Z" fill="#E0E0E0"/>
<path d="M112.294 165.12H3.84998C1.91198 165.12 0.333984 163.542 0.333984 161.604V3.636C0.333984 1.698 1.91198 0.119999 3.84998 0.119999H112.294C114.232 0.119999 115.81 1.698 115.81 3.636V161.604C115.81 163.542 114.232 165.12 112.294 165.12ZM3.84998 0.269999C1.99598 0.269999 0.483984 1.782 0.483984 3.636V161.604C0.483984 163.458 1.99598 164.97 3.84998 164.97H112.294C114.148 164.97 115.66 163.458 115.66 161.604V3.636C115.66 1.782 114.148 0.269999 112.294 0.269999H3.84998Z" fill="#E0E0E0"/>
</svg>
