<svg width="36" height="61" viewBox="0 0 36 61" fill="none" xmlns="http://www.w3.org/2000/svg">
<path d="M17.048 41.304C17.042 41.094 16.34 20.358 12.968 17.082C9.68603 13.896 5.92403 16.962 5.76203 17.094L5.42603 16.686C5.46803 16.65 9.71603 13.182 13.334 16.698C16.856 20.124 17.546 40.422 17.576 41.28L17.048 41.298V41.304Z" fill="#E0E0E0"/>
<path d="M17.336 45.384C17.312 45.138 15.032 20.49 24.032 10.164L24.428 10.512C15.578 20.67 17.834 45.09 17.858 45.336L17.33 45.39L17.336 45.384Z" fill="#E0E0E0"/>
<path d="M17.006 42.774L16.478 42.738C16.496 42.456 18.242 14.724 11.636 8.65201L11.996 8.26199C18.782 14.502 17.084 41.622 17.006 42.774Z" fill="#E0E0E0"/>
<path d="M17.864 42.762H17.336C17.342 41.994 17.552 24.024 22.658 21.096C23.792 20.442 24.902 20.334 25.958 20.772C29.042 22.05 30.572 27.54 30.638 27.774L30.128 27.912C30.116 27.858 28.604 22.434 25.754 21.258C24.854 20.886 23.9 20.988 22.916 21.552C18.074 24.33 17.858 42.576 17.858 42.762H17.864Z" fill="#E0E0E0"/>
<path d="M15.878 42.774L15.35 42.744C15.356 42.6 16.118 28.542 12.326 23.586C11.408 22.386 10.406 21.816 9.35602 21.888C6.87202 22.062 4.78402 25.698 4.76602 25.734L4.30402 25.476C4.39402 25.314 6.54802 21.552 9.32002 21.36C10.562 21.27 11.714 21.912 12.746 23.262C16.658 28.368 15.914 42.18 15.878 42.768V42.774Z" fill="#E0E0E0"/>
<path d="M16.712 44.682C16.61 43.32 14.234 11.214 18.416 5.556L18.842 5.86799C14.774 11.37 17.216 44.304 17.24 44.64L16.712 44.682Z" fill="#E0E0E0"/>
<path d="M27.098 24.024C27.098 24.024 24.59 24.948 25.334 27.132C26.078 29.316 34.016 32.91 34.016 32.91C34.016 32.91 37.34 29.862 34.286 24.912C31.232 19.956 27.164 22.464 27.098 24.024Z" fill="#EBEBEB"/>
<path d="M16.19 19.866C16.19 19.866 18.86 19.752 19.016 22.056C19.166 24.36 13.226 30.732 13.226 30.732C13.226 30.732 8.984 29.202 9.896 23.454C10.808 17.706 15.524 18.45 16.19 19.866Z" fill="#EBEBEB"/>
<path d="M13.928 8.84399C13.928 8.84399 15.71 8.65198 15.566 7.56598C15.422 6.47998 8.64201 3.69 4.64001 8.202C4.64001 8.202 7.20201 12.6 10.904 12.66C14.606 12.72 13.928 8.838 13.928 8.838V8.84399Z" fill="#EBEBEB"/>
<path d="M17.252 6.21C17.252 6.21 15.638 6.98999 15.188 5.99399C14.738 4.99799 19.016 -0.959995 24.8 0.756005C24.8 0.756005 24.956 5.844 21.842 7.854C18.728 9.864 17.258 6.21 17.258 6.21H17.252Z" fill="#EBEBEB"/>
<path d="M8.81601 23.148C8.81601 23.148 10.046 22.158 8.72001 21.672C7.39401 21.186 0.884012 21.324 0.812012 27.774C0.812012 27.774 8.39601 29.034 9.33201 26.58C10.268 24.126 8.81601 23.154 8.81601 23.154V23.148Z" fill="#EBEBEB"/>
<path d="M24.278 8.68199C24.278 8.68199 23.048 7.69199 24.374 7.20599C25.7 6.71999 32.21 6.85798 32.276 13.308C32.276 13.308 24.692 14.568 23.756 12.114C22.82 9.65999 24.272 8.688 24.272 8.688L24.278 8.68199Z" fill="#EBEBEB"/>
<path d="M20.27 13.878C20.27 13.878 20.162 12.672 21.134 13.146C22.106 13.62 25.502 17.28 21.986 20.754C21.986 20.754 17.252 17.244 18.104 15.42C18.956 13.596 20.27 13.878 20.27 13.878Z" fill="#EBEBEB"/>
<path d="M7.71802 15.6C7.71802 15.6 8.45003 14.634 7.37603 14.52C6.30203 14.4 1.47803 15.69 2.60003 20.502C2.60003 20.502 8.47403 20.058 8.72603 18.06C8.97802 16.062 7.71802 15.6 7.71802 15.6Z" fill="#EBEBEB"/>
<path d="M28.082 60.636H7.91602L5.74402 38.556H30.254L28.082 60.636Z" fill="#F0F0F0"/>
<path d="M30.818 36.12H4.15402V40.992H30.818V36.12Z" fill="#E6E6E6"/>
</svg>
